<svg xmlns="http://www.w3.org/2000/svg" width="27" height="30" viewBox="0 0 27 30">
  <g fill="none" fill-rule="evenodd">
    <rect width="27" height="30" fill="#FFFFFF"/>
    <path fill="#000000" fill-rule="nonzero" d="M5.83684274,0.211883589 C5.10005359,0.211883589 4.48987904,0.751382741 4.48987904,1.48319784 L4.48987904,1.90696926 L1.12246976,1.90696926 C0.512272749,1.90696926 0,2.39046702 0,2.9663978 L0,5.08525488 C0,5.66118567 0.512272749,6.14468342 1.12246976,6.14468342 L1.34696371,6.14468342 L1.34696371,16.5270895 C1.34696371,17.1029737 1.85923646,17.586518 2.46943347,17.586518 L12.3471674,17.586518 C12.9573644,17.586518 13.4696371,17.103016 13.4696371,16.5270895 L13.4696371,6.14468342 L13.6941311,6.14468342 C14.3043281,6.14468342 14.8166008,5.66118567 14.8166008,5.08525488 L14.8166008,2.9663978 C14.8166008,2.39046702 14.3043281,1.90696926 13.6941311,1.90696926 L10.3267218,1.90696926 L10.3267218,1.48319784 C10.3267218,0.751357318 9.71654721,0.211883589 8.97975807,0.211883589 L5.83684274,0.211883589 Z M5.83684274,1.48319784 L8.97975807,1.48319784 L8.97975807,1.90696926 L5.83684274,1.90696926 L5.83684274,1.48319784 Z M1.34696371,3.17828351 L13.4696371,3.17828351 L13.4696371,4.87336918 L1.34696371,4.87336918 L1.34696371,3.17828351 Z M2.69392742,6.14468342 L12.1226734,6.14468342 L12.1226734,16.3152038 L2.69392742,16.3152038 L2.69392742,6.14468342 Z" transform="translate(6 5)"/>
  </g>
</svg>
